M48
;DRILL file {KiCad (5.0.2)-1} date 27.01.2020 14:31:23
;FORMAT={-:-/ absolute / inch / decimal}
FMAT,2
INCH,TZ
T1C0.0157
T2C0.0315
T3C0.0354
T4C0.0394
T5C0.0402
%
G90
G05
T1
X7.3Y-3.95
T2
X6.Y-3.7
X6.6Y-3.7
X6.9Y-4.3
X7.5Y-4.3
X6.Y-4.
X6.6Y-4.
X6.15Y-4.3
X6.75Y-4.3
X5.95Y-4.5
X6.55Y-4.5
X6.7Y-4.5
X7.3Y-4.5
T3
X7.1Y-3.75
X7.2Y-3.75
X6.8Y-4.
X6.9Y-4.
T4
X5.8Y-3.3
X5.8Y-3.4
X5.9Y-3.3
X5.9Y-3.4
X6.Y-3.3
X6.Y-3.4
X6.1Y-3.3
X6.1Y-3.4
X6.2Y-3.3
X6.2Y-3.4
X6.3Y-3.3
X6.3Y-3.4
X6.4Y-3.3
X6.4Y-3.4
X6.5Y-3.3
X6.5Y-3.4
X6.6Y-3.3
X6.6Y-3.4
X6.7Y-3.3
X6.7Y-3.4
X6.8Y-3.3
X6.8Y-3.4
X6.9Y-3.3
X6.9Y-3.4
X7.Y-3.3
X7.Y-3.4
X7.1Y-3.3
X7.1Y-3.4
X7.2Y-3.3
X7.2Y-3.4
X7.3Y-3.3
X7.3Y-3.4
X7.4Y-3.3
X7.4Y-3.4
X7.5Y-3.3
X7.5Y-3.4
X7.6Y-3.3
X7.6Y-3.4
X7.7Y-3.3
X7.7Y-3.4
T5
X7.5304Y-4.7556
X7.6283Y-4.7348
X7.7261Y-4.714
X7.8239Y-4.6932
X7.7Y-3.8
X7.7Y-3.9
X7.7Y-4.
X7.7Y-4.1
X5.7588Y-4.6932
X5.8566Y-4.714
X5.9544Y-4.7348
X6.0522Y-4.7556
T0
M30
